# xmcd CD database file generated by Grip 3.3.1
# 
# Track frame offsets:
#       150
#       18114
#       29455
#       46613
#       81752
#       181514
#       200306
#       222594
#       242969
#       266020
# 
# Disc length: 4313 seconds
# 
# Revision: 1
# Processed by: cddbd v1.5.2PL0 Copyright (c) Steve Scherf et al.
# Submitted via: Grip 3.3.1
# 
DISCID=7c10d70a
DTITLE=Johann Sebastian Bach - Het Utopa Barokorgel in het Orgelpark
DYEAR=2018
DGENRE=Classical
TTITLE0=Jan Willem Jansen - uit Die Kunst der Fuge (BWV 1080]\n  Contrapu
TTITLE0=nctus 1
TTITLE1=Jan Willem Jansen - uit Die Kunst der Fuge (BWV 1080)  \nCanon al
TTITLE1=la Decima in Contrapuncto alla Quintrapuncto alla Quinta
TTITLE2=Jan Willem Jansen - uit Die Kunst der Fuge (BWV 1080)   Contrapun
TTITLE2=ctus 5
TTITLE3=Marcel Verheggen - Preludium en Fuga in G grote terts ( BWV 541)
TTITLE4=Marcel Verheggen - Partita: Sei gegrüsset, Jesu gütig (BWV 768)
TTITLE5=David Franke - Concerto in a kleine terts (BWV 593]\n Allegro\n
TTITLE6=David Franke - Concerto in a kleine terts (BWV 593]\n Adagio
TTITLE7=David Franke - Concerto in a kleine terts (BWV 593]\n Allegro
TTITLE8=David Franke - Improvisatie
TTITLE9=Ansgar Wallenhorst - Improvisatie
EXTD=
EXTT0=
EXTT1=
EXTT2=
EXTT3=
EXTT4=
EXTT5=
EXTT6=
EXTT7=
EXTT8=
EXTT9=
PLAYORDER=
